<svg xmlns="http://www.w3.org/2000/svg" version="1.1" xmlns:xlink="http://www.w3.org/1999/xlink" xmlns:svgjs="http://svgjs.dev/svgjs" width="1000" height="623" viewBox="0 0 1000 623"><g transform="matrix(1,0,0,1,-0.6060606060606233,0.2522267206477409)"><svg viewBox="0 0 396 247" data-background-color="#ffffff" preserveAspectRatio="xMidYMid meet" height="623" width="1000" xmlns="http://www.w3.org/2000/svg" xmlns:xlink="http://www.w3.org/1999/xlink"><g id="tight-bounds" transform="matrix(1,0,0,1,0.2400000000000091,-0.09999999999999432)"><svg viewBox="0 0 395.52 247.2" height="247.2" width="395.52"><g><svg></svg></g><g><svg viewBox="0 0 395.52 247.2" height="247.2" width="395.52"><g transform="matrix(1,0,0,1,75.54432,78.97752718162839)"><svg viewBox="0 0 244.43135999999998 89.24494563674321" height="89.24494563674321" width="244.43135999999998"><g><svg viewBox="0 0 244.43135999999998 89.24494563674321" height="89.24494563674321" width="244.43135999999998"><g><svg viewBox="0 0 244.43135999999998 89.24494563674321" height="89.24494563674321" width="244.43135999999998"><g><svg viewBox="0 0 244.43135999999998 89.24494563674321" height="89.24494563674321" width="244.43135999999998"><g><svg viewBox="0 0 244.43135999999998 89.24494563674321" height="89.24494563674321" width="244.43135999999998"><g><svg viewBox="0 0 244.43135999999998 89.24494563674321" height="89.24494563674321" width="244.43135999999998"><g transform="matrix(1,0,0,1,0,0)"><svg width="244.43135999999998" viewBox="2.3000006675720215 -35.80000305175781 216.4499969482422 75.70000457763672" height="89.24494563674321" data-palette-color="#2d805c"><svg></svg><svg></svg><g class="undefined-text-0" data-fill-palette-color="primary" id="text-0"><path xmlns="http://www.w3.org/2000/svg" d="M20.2 0.55v0c-3.567 0-6.69-0.76-9.37-2.28-2.687-1.513-4.78-3.637-6.28-6.37-1.5-2.733-2.25-5.917-2.25-9.55v0c0-3.667 0.743-6.86 2.23-9.58 1.48-2.713 3.57-4.82 6.27-6.32 2.7-1.5 5.833-2.25 9.4-2.25v0c3.567 0 6.693 0.75 9.38 2.25 2.68 1.5 4.77 3.607 6.27 6.32 1.5 2.72 2.25 5.913 2.25 9.58v0c0 3.633-0.75 6.817-2.25 9.55-1.5 2.733-3.59 4.857-6.27 6.37-2.687 1.52-5.813 2.28-9.38 2.28zM20.2-7.15v0c2.6 0 4.643-0.927 6.13-2.78 1.48-1.847 2.22-4.42 2.22-7.72v0c0-3.3-0.733-5.867-2.2-7.7-1.467-1.833-3.517-2.75-6.15-2.75v0c-2.633 0-4.683 0.917-6.15 2.75-1.467 1.833-2.2 4.4-2.2 7.7v0c0 3.3 0.733 5.873 2.2 7.72 1.467 1.853 3.517 2.78 6.15 2.78zM64.95 0h-16.75c-1.5 0-2.65-0.41-3.45-1.23-0.8-0.813-1.2-1.953-1.2-3.42v0-26c0-1.5 0.4-2.65 1.2-3.45 0.8-0.8 1.933-1.2 3.4-1.2v0c1.467 0 2.6 0.4 3.4 1.2 0.8 0.8 1.2 1.95 1.2 3.45v0 23h12.2c1.267 0 2.243 0.333 2.93 1 0.68 0.667 1.02 1.6 1.02 2.8v0c0 1.233-0.34 2.183-1.02 2.85-0.687 0.667-1.663 1-2.93 1zM88.85 0.55v0c-4.033 0-7.46-0.75-10.28-2.25-2.813-1.5-4.953-3.6-6.42-6.3-1.467-2.7-2.2-5.85-2.2-9.45v0c0-3.733 0.773-6.977 2.32-9.73 1.553-2.747 3.78-4.87 6.68-6.37 2.9-1.5 6.4-2.25 10.5-2.25v0c1.667 0 3.367 0.157 5.1 0.47 1.733 0.32 3.433 0.913 5.1 1.78v0c0.867 0.4 1.457 0.957 1.77 1.67 0.32 0.72 0.42 1.48 0.3 2.28-0.113 0.8-0.403 1.507-0.87 2.12-0.467 0.62-1.077 1.047-1.83 1.28-0.747 0.233-1.603 0.133-2.57-0.3v0c-2.067-0.967-4.383-1.45-6.95-1.45v0c-3.367 0-5.877 0.9-7.53 2.7-1.647 1.8-2.47 4.4-2.47 7.8v0c0 3.4 0.833 5.967 2.5 7.7 1.667 1.733 4.133 2.6 7.4 2.6v0c1.533 0 3.25-0.233 5.15-0.7v0-5.55h-3.5c-2.367 0-3.55-1.083-3.55-3.25v0c0-2.133 1.183-3.2 3.55-3.2v0h7.4c2.4 0 3.6 1.2 3.6 3.6v0 11.05c0 1-0.21 1.85-0.63 2.55-0.413 0.7-1.07 1.2-1.97 1.5v0c-1.6 0.533-3.31 0.95-5.13 1.25-1.813 0.3-3.637 0.45-5.47 0.45zM109.85 0.45v0c-1.567 0-2.717-0.533-3.45-1.6-0.733-1.067-0.733-2.4 0-4v0l12.45-26.8c0.6-1.3 1.333-2.25 2.2-2.85 0.867-0.6 1.883-0.9 3.05-0.9v0c1.133 0 2.133 0.3 3 0.9 0.867 0.6 1.6 1.55 2.2 2.85v0l12.45 26.8c0.767 1.633 0.8 2.973 0.1 4.02-0.7 1.053-1.8 1.58-3.3 1.58v0c-1.333 0-2.36-0.3-3.08-0.9-0.713-0.6-1.353-1.567-1.92-2.9v0l-1.6-3.8h-15.75l-1.6 3.8c-0.6 1.333-1.217 2.3-1.85 2.9-0.633 0.6-1.6 0.9-2.9 0.9zM124.1-25.65h-0.1l-4.8 11.45h9.7z" fill="#2d805c" fill-rule="nonzero" stroke="none" stroke-width="1" stroke-linecap="butt" stroke-linejoin="miter" stroke-miterlimit="10" stroke-dasharray="" stroke-dashoffset="0" font-family="none" font-weight="none" font-size="none" text-anchor="none" style="mix-blend-mode: normal" data-fill-palette-color="primary" opacity="1"></path><path xmlns="http://www.w3.org/2000/svg" d="M20.7 39.35h-12.7c-3.2 0-4.8-1.583-4.8-4.75v0-25.75c0-3.167 1.6-4.75 4.8-4.75v0h12.2c3.8 0 6.743 0.827 8.83 2.48 2.08 1.647 3.12 3.853 3.12 6.62v0c0 1.833-0.457 3.433-1.37 4.8-0.92 1.367-2.197 2.383-3.83 3.05v0c1.967 0.6 3.483 1.607 4.55 3.02 1.067 1.42 1.6 3.18 1.6 5.28v0c0 3.1-1.107 5.54-3.32 7.32-2.22 1.787-5.247 2.68-9.08 2.68zM12 10.85v7.25h6.55c1.667 0 2.893-0.3 3.68-0.9 0.78-0.6 1.17-1.517 1.17-2.75v0c0-1.233-0.39-2.143-1.17-2.73-0.787-0.58-2.013-0.87-3.68-0.87v0zM12 24.85v7.75h7.45c1.7 0 2.943-0.327 3.73-0.98 0.78-0.647 1.17-1.62 1.17-2.92v0c0-1.3-0.39-2.267-1.17-2.9-0.787-0.633-2.03-0.95-3.73-0.95v0zM55.3 39.9v0c-3.567 0-6.69-0.76-9.37-2.28-2.687-1.513-4.78-3.637-6.28-6.37-1.5-2.733-2.25-5.917-2.25-9.55v0c0-3.667 0.743-6.86 2.23-9.58 1.48-2.713 3.57-4.82 6.27-6.32 2.7-1.5 5.833-2.25 9.4-2.25v0c3.567 0 6.693 0.75 9.38 2.25 2.68 1.5 4.77 3.607 6.27 6.32 1.5 2.72 2.25 5.913 2.25 9.58v0c0 3.633-0.75 6.817-2.25 9.55-1.5 2.733-3.59 4.857-6.27 6.37-2.687 1.52-5.813 2.28-9.38 2.28zM55.3 32.2v0c2.6 0 4.643-0.927 6.13-2.78 1.48-1.847 2.22-4.42 2.22-7.72v0c0-3.3-0.733-5.867-2.2-7.7-1.467-1.833-3.517-2.75-6.15-2.75v0c-2.633 0-4.683 0.917-6.15 2.75-1.467 1.833-2.2 4.4-2.2 7.7v0c0 3.3 0.733 5.873 2.2 7.72 1.467 1.853 3.517 2.78 6.15 2.78zM93.1 39.8v0c-1.267 0-2.29-0.267-3.07-0.8-0.787-0.533-1.447-1.383-1.98-2.55v0l-12.1-26.7c-0.533-1.167-0.7-2.217-0.5-3.15 0.2-0.933 0.667-1.66 1.4-2.18 0.733-0.513 1.65-0.77 2.75-0.77v0c1.333 0 2.35 0.3 3.05 0.9 0.7 0.6 1.3 1.483 1.8 2.65v0l8.8 20.4 8.8-20.45c0.5-1.167 1.1-2.043 1.8-2.63 0.7-0.58 1.683-0.87 2.95-0.87v0c1.033 0 1.9 0.267 2.6 0.8 0.7 0.533 1.14 1.257 1.32 2.17 0.187 0.92 0.013 1.963-0.52 3.13v0l-12.15 26.7c-0.5 1.167-1.14 2.017-1.92 2.55-0.787 0.533-1.797 0.8-3.03 0.8zM119.4 39.8v0c-1.467 0-2.6-0.4-3.4-1.2-0.8-0.8-1.2-1.95-1.2-3.45v0-26.85c0-1.5 0.4-2.65 1.2-3.45 0.8-0.8 1.933-1.2 3.4-1.2v0c1.467 0 2.6 0.4 3.4 1.2 0.8 0.8 1.2 1.95 1.2 3.45v0 10.9h0.1l12.15-13.4c0.633-0.667 1.31-1.193 2.03-1.58 0.713-0.38 1.52-0.57 2.42-0.57v0c1.367 0 2.367 0.357 3 1.07 0.633 0.72 0.917 1.563 0.85 2.53-0.067 0.967-0.45 1.833-1.15 2.6v0l-10.4 11 11 12.45c0.867 0.967 1.3 1.95 1.3 2.95 0 1-0.35 1.84-1.05 2.52-0.7 0.687-1.7 1.03-3 1.03v0c-1.133 0-2.05-0.227-2.75-0.68-0.7-0.447-1.433-1.12-2.2-2.02v0l-12.2-13.65h-0.1v11.7c0 1.5-0.393 2.65-1.18 3.45-0.78 0.8-1.92 1.2-3.42 1.2zM165.5 39.9v0c-5.133 0-9.06-1.3-11.78-3.9-2.713-2.6-4.07-6.483-4.07-11.65v0-16.05c0-1.5 0.4-2.65 1.2-3.45 0.8-0.8 1.933-1.2 3.4-1.2v0c1.467 0 2.6 0.4 3.4 1.2 0.8 0.8 1.2 1.95 1.2 3.45v0 16.15c0 2.567 0.567 4.5 1.7 5.8 1.133 1.3 2.783 1.95 4.95 1.95v0c2.133 0 3.767-0.65 4.9-1.95 1.133-1.3 1.7-3.233 1.7-5.8v0-16.15c0-1.5 0.39-2.65 1.17-3.45 0.787-0.8 1.913-1.2 3.38-1.2v0c1.467 0 2.583 0.4 3.35 1.2 0.767 0.8 1.15 1.95 1.15 3.45v0 16.05c0 5.167-1.327 9.05-3.98 11.65-2.647 2.6-6.537 3.9-11.67 3.9zM191.6 39.8v0c-2.867 0-4.3-1.45-4.3-4.35v0-27.25c0-1.467 0.367-2.59 1.1-3.37 0.733-0.787 1.7-1.18 2.9-1.18v0c1.067 0 1.893 0.2 2.48 0.6 0.58 0.4 1.253 1.067 2.02 2v0l14.45 18.05v-16.35c0-2.867 1.417-4.3 4.25-4.3v0c1.4 0 2.46 0.373 3.18 1.12 0.713 0.753 1.07 1.813 1.07 3.18v0 27.7c0 1.267-0.333 2.273-1 3.02-0.667 0.753-1.567 1.13-2.7 1.13v0c-1.133 0-2.023-0.2-2.67-0.6-0.653-0.4-1.347-1.067-2.08-2v0l-14.45-18.05v16.3c0 2.9-1.417 4.35-4.25 4.35z" fill="#2d805c" fill-rule="nonzero" stroke="none" stroke-width="1" stroke-linecap="butt" stroke-linejoin="miter" stroke-miterlimit="10" stroke-dasharray="" stroke-dashoffset="0" font-family="none" font-weight="none" font-size="none" text-anchor="none" style="mix-blend-mode: normal" data-fill-palette-color="primary" opacity="1"></path></g></svg></g></svg></g></svg></g></svg></g></svg></g></svg></g></svg></g><g><path d="M0 123.6c0-68.262 55.338-123.6 123.6-123.6 50.665 0 94.211 30.484 113.294 74.112h-2.032c-18.965-42.574-61.647-72.253-111.262-72.253-67.236 0-121.741 54.505-121.741 121.741 0 67.236 54.505 121.741 121.741 121.741 49.615 0 92.298-29.68 111.262-72.253l2.032 0c-19.084 43.627-62.629 74.112-113.294 74.112-68.262 0-123.6-55.338-123.6-123.6z" fill="#2d805c" stroke="transparent" data-fill-palette-color="tertiary"></path></g></svg></g><defs></defs></svg><rect width="395.52" height="247.2" fill="none" stroke="none" visibility="hidden"></rect></g></svg></g></svg>