<svg width="38" height="15" viewBox="0 0 38 15" fill="none" xmlns="http://www.w3.org/2000/svg">
<ellipse cx="13" cy="7.5" rx="13" ry="7.5" fill="#771011"/>
<ellipse cx="15.5" cy="7.96875" rx="12.5" ry="7.03125" fill="white"/>
<path d="M9.17839 7.81223C8.89039 7.81223 8.64106 7.7429 8.43039 7.60423C8.21972 7.46557 8.05706 7.27357 7.94239 7.02823C7.83039 6.78023 7.77439 6.4949 7.77439 6.17223C7.77439 5.8549 7.83039 5.5749 7.94239 5.33223C8.05706 5.0869 8.21972 4.8949 8.43039 4.75623C8.64106 4.6149 8.89039 4.54423 9.17839 4.54423C9.46639 4.54423 9.71439 4.6149 9.92239 4.75623C10.1331 4.8949 10.2944 5.0869 10.4064 5.33223C10.5184 5.57757 10.5744 5.85757 10.5744 6.17223C10.5744 6.4949 10.5184 6.78023 10.4064 7.02823C10.2944 7.27357 10.1331 7.46557 9.92239 7.60423C9.71439 7.7429 9.46639 7.81223 9.17839 7.81223ZM9.27839 7.36023C9.42772 7.3469 9.55839 7.2949 9.67039 7.20423C9.78506 7.11357 9.87439 6.98957 9.93839 6.83223C10.0024 6.67223 10.0344 6.4869 10.0344 6.27623C10.0344 6.2469 10.0331 6.21757 10.0304 6.18823C10.0304 6.1589 10.0291 6.12957 10.0264 6.10023C10.0077 5.86823 9.95706 5.66957 9.87439 5.50423C9.79439 5.3389 9.69172 5.21357 9.56639 5.12823C9.44106 5.04023 9.30239 4.99623 9.15039 4.99623C9.13972 4.99623 9.12772 4.99623 9.11439 4.99623C9.10372 4.99623 9.09172 4.99757 9.07839 5.00023C8.93172 5.0109 8.80106 5.06157 8.68639 5.15223C8.57172 5.2429 8.48106 5.3669 8.41439 5.52423C8.34772 5.6789 8.31439 5.86157 8.31439 6.07223C8.31439 6.0989 8.31439 6.1269 8.31439 6.15623C8.31706 6.18557 8.31972 6.2149 8.32239 6.24423C8.34106 6.4789 8.39172 6.68023 8.47439 6.84823C8.55706 7.01357 8.66239 7.14157 8.79039 7.23223C8.91839 7.32023 9.05972 7.36423 9.21439 7.36423C9.22506 7.36423 9.23572 7.36423 9.24639 7.36423C9.25706 7.36157 9.26772 7.36023 9.27839 7.36023ZM10.8692 7.74023V4.54023L11.4892 4.62023L11.3692 7.30423L12.8732 7.18423V7.74023H10.8692ZM15.1536 7.82423V7.50023C15.0629 7.60423 14.9456 7.6829 14.8016 7.73623C14.6603 7.7869 14.5176 7.81223 14.3736 7.81223C14.0829 7.81223 13.8283 7.7469 13.6096 7.61623C13.3909 7.4829 13.2203 7.29357 13.0976 7.04823C12.9749 6.80023 12.9136 6.5069 12.9136 6.16823C12.9136 5.8429 12.9749 5.5589 13.0976 5.31623C13.2203 5.0709 13.3909 4.88157 13.6096 4.74823C13.8283 4.61223 14.0816 4.54423 14.3696 4.54423C14.5376 4.54423 14.6963 4.56423 14.8456 4.60423C14.9949 4.64157 15.1269 4.69223 15.2416 4.75623C15.3589 4.82023 15.4469 4.89357 15.5056 4.97623L15.3936 5.66023H15.1296C15.1136 5.51623 15.0843 5.40157 15.0416 5.31623C15.0016 5.2309 14.9563 5.1669 14.9056 5.12423C14.8416 5.06823 14.7616 5.02823 14.6656 5.00423C14.5723 4.97757 14.4643 4.96423 14.3416 4.96423C14.1789 4.96423 14.0309 5.00823 13.8976 5.09623C13.7669 5.18423 13.6629 5.31757 13.5856 5.49623C13.5083 5.6749 13.4696 5.8989 13.4696 6.16823C13.4696 6.41357 13.5123 6.62557 13.5976 6.80423C13.6829 6.9829 13.7976 7.12023 13.9416 7.21623C14.0856 7.31223 14.2456 7.36023 14.4216 7.36023C14.5496 7.36023 14.6709 7.3309 14.7856 7.27223C14.9029 7.2109 14.9989 7.1229 15.0736 7.00823C15.1483 6.8909 15.1856 6.7509 15.1856 6.58823C15.1856 6.5749 15.1856 6.56023 15.1856 6.54423C15.1856 6.52823 15.1843 6.51223 15.1816 6.49623H14.4376L14.3576 6.15223L15.6696 6.00023L15.5896 7.74423L15.1536 7.82423ZM17.8663 7.79223L17.6543 7.15223H16.2863L16.0063 7.79223L15.5903 7.74023L16.7423 4.54023L17.3623 4.69223L17.2783 4.88023L18.4783 7.73623L17.8663 7.79223ZM17.0663 5.36823L16.4423 6.79223L17.4983 6.67623L17.0663 5.36823Z" fill="#221712"/>
<path d="M13.3095 12.4995L13.2415 9.82351C13.2042 9.82618 13.1682 9.83018 13.1335 9.83551C13.1015 9.84084 13.0722 9.84618 13.0455 9.85151L12.9655 9.49951C13.0402 9.48351 13.1362 9.46751 13.2535 9.45151C13.3735 9.43284 13.5029 9.41551 13.6415 9.39951C13.7829 9.38084 13.9215 9.36618 14.0575 9.35551C14.1935 9.34484 14.3162 9.33951 14.4255 9.33951C14.6229 9.33951 14.7975 9.37018 14.9495 9.43151C15.1042 9.49284 15.2242 9.58351 15.3095 9.70351C15.3975 9.82084 15.4415 9.96484 15.4415 10.1355C15.4415 10.3195 15.3975 10.4688 15.3095 10.5835C15.2215 10.6982 15.1029 10.7702 14.9535 10.7995L14.9575 10.8075C15.0695 10.8182 15.1722 10.8582 15.2655 10.9275C15.3615 10.9968 15.4375 11.0902 15.4935 11.2075C15.5522 11.3248 15.5815 11.4648 15.5815 11.6275C15.5815 11.8195 15.5349 11.9808 15.4415 12.1115C15.3509 12.2395 15.2215 12.3368 15.0535 12.4035C14.8882 12.4675 14.6935 12.4995 14.4695 12.4995H13.3095ZM13.7895 10.7275C13.8535 10.7275 13.9269 10.7262 14.0095 10.7235C14.0949 10.7208 14.1775 10.7168 14.2575 10.7115C14.3402 10.7062 14.4082 10.6982 14.4615 10.6875C14.5949 10.6608 14.7015 10.6088 14.7815 10.5315C14.8642 10.4542 14.9055 10.3528 14.9055 10.2275C14.9055 10.1288 14.8815 10.0435 14.8335 9.97151C14.7855 9.89951 14.7229 9.84351 14.6455 9.80351C14.5682 9.76351 14.4829 9.74351 14.3895 9.74351C14.1949 9.74351 13.9949 9.75151 13.7895 9.76751V10.7275ZM13.8895 12.1195C14.0202 12.1195 14.1522 12.1155 14.2855 12.1075C14.4189 12.0995 14.5309 12.0862 14.6215 12.0675C14.7709 12.0355 14.8815 11.9755 14.9535 11.8875C15.0255 11.7968 15.0615 11.6835 15.0615 11.5475C15.0615 11.4488 15.0349 11.3675 14.9815 11.3035C14.9282 11.2368 14.8589 11.1875 14.7735 11.1555C14.6909 11.1235 14.6002 11.1075 14.5015 11.1075H13.7895V12.1195H13.8895ZM17.1003 12.5715C16.8123 12.5715 16.5629 12.5022 16.3523 12.3635C16.1416 12.2248 15.9789 12.0328 15.8643 11.7875C15.7523 11.5395 15.6963 11.2542 15.6963 10.9315C15.6963 10.6142 15.7523 10.3342 15.8643 10.0915C15.9789 9.84618 16.1416 9.65418 16.3523 9.51551C16.5629 9.37418 16.8123 9.30351 17.1003 9.30351C17.3883 9.30351 17.6363 9.37418 17.8443 9.51551C18.0549 9.65418 18.2163 9.84618 18.3283 10.0915C18.4403 10.3368 18.4963 10.6168 18.4963 10.9315C18.4963 11.2542 18.4403 11.5395 18.3283 11.7875C18.2163 12.0328 18.0549 12.2248 17.8443 12.3635C17.6363 12.5022 17.3883 12.5715 17.1003 12.5715ZM17.2003 12.1195C17.3496 12.1062 17.4803 12.0542 17.5923 11.9635C17.7069 11.8728 17.7963 11.7488 17.8603 11.5915C17.9243 11.4315 17.9563 11.2462 17.9563 11.0355C17.9563 11.0062 17.9549 10.9768 17.9523 10.9475C17.9523 10.9182 17.9509 10.8888 17.9483 10.8595C17.9296 10.6275 17.8789 10.4288 17.7963 10.2635C17.7163 10.0982 17.6136 9.97284 17.4883 9.88751C17.3629 9.79951 17.2243 9.75551 17.0723 9.75551C17.0616 9.75551 17.0496 9.75551 17.0363 9.75551C17.0256 9.75551 17.0136 9.75684 17.0003 9.75951C16.8536 9.77018 16.7229 9.82084 16.6083 9.91151C16.4936 10.0022 16.4029 10.1262 16.3363 10.2835C16.2696 10.4382 16.2363 10.6208 16.2363 10.8315C16.2363 10.8582 16.2363 10.8862 16.2363 10.9155C16.2389 10.9448 16.2416 10.9742 16.2443 11.0035C16.2629 11.2382 16.3136 11.4395 16.3963 11.6075C16.4789 11.7728 16.5843 11.9008 16.7123 11.9915C16.8403 12.0795 16.9816 12.1235 17.1363 12.1235C17.1469 12.1235 17.1576 12.1235 17.1683 12.1235C17.1789 12.1208 17.1896 12.1195 17.2003 12.1195ZM19.7351 12.5515L18.4271 9.37951L19.0671 9.29951L19.9151 11.7035L20.6191 9.29951L21.2631 9.37951L20.1391 12.1995L20.2231 12.4235L19.7351 12.5515ZM23.155 12.5515L22.159 10.9355L21.935 11.1475V12.4995L21.431 12.5515L21.351 9.29951L21.935 9.37951V10.6875L23.111 9.29951L23.747 9.43551L22.479 10.6315L23.819 12.4515L23.155 12.5515ZM25.7832 9.29951L26.3752 9.37951L26.2952 11.4515C26.2872 11.6622 26.2352 11.8528 26.1392 12.0235C26.0432 12.1915 25.9058 12.3248 25.7272 12.4235C25.5485 12.5222 25.3312 12.5715 25.0752 12.5715C24.8458 12.5715 24.6472 12.5248 24.4792 12.4315C24.3112 12.3382 24.1805 12.2075 24.0872 12.0395C23.9938 11.8715 23.9432 11.6755 23.9352 11.4515L23.8552 9.29951L24.4632 9.37951V11.3595C24.4632 11.5862 24.5245 11.7688 24.6472 11.9075C24.7698 12.0435 24.9258 12.1115 25.1152 12.1115C25.3045 12.1115 25.4632 12.0488 25.5912 11.9235C25.7192 11.7982 25.7832 11.6102 25.7832 11.3595V9.29951ZM28.7431 12.5515L27.2991 10.3675L27.3471 12.4995L26.8951 12.5515L26.7791 9.71151L26.6391 9.50751L27.2831 9.29951L28.6751 11.6595L28.6511 9.29951L29.2071 9.37951L29.0991 12.4995L28.7431 12.5515Z" fill="#221712"/>
</svg>
