<?xml version="1.0" standalone="no"?>
<!DOCTYPE svg PUBLIC "-//W3C//DTD SVG 20010904//EN"
 "http://www.w3.org/TR/2001/REC-SVG-20010904/DTD/svg10.dtd">
<svg version="1.0" xmlns="http://www.w3.org/2000/svg"
 width="750.000000pt" height="750.000000pt" viewBox="0 0 750.000000 750.000000"
 preserveAspectRatio="xMidYMid meet">
<metadata>
Created by potrace 1.14, written by Peter Selinger 2001-2017
</metadata>
<g transform="translate(0.000000,750.000000) scale(0.100000,-0.100000)"
fill="#000000" stroke="none">
<path d="M0 3750 l0 -3750 3750 0 3750 0 0 3750 0 3750 -3750 0 -3750 0 0
-3750z m4570 2585 c170 -20 321 -50 457 -91 926 -281 1618 -1038 1808 -1979
39 -193 49 -297 49 -515 0 -422 -80 -767 -264 -1145 -348 -714 -1029 -1245
-1796 -1400 -290 -59 -641 -71 -914 -30 -144 21 -386 82 -516 130 -226 82
-531 253 -723 404 l-65 51 121 0 120 0 54 -38 c279 -199 655 -346 1034 -403
265 -41 602 -28 883 32 613 132 1167 516 1522 1055 476 722 532 1657 144 2434
-134 267 -268 452 -481 662 -126 126 -207 191 -358 293 -809 543 -1897 547
-2707 9 l-96 -64 -118 0 -118 0 65 51 c382 300 869 498 1349 548 138 14 415
12 550 -4z m-2431 -985 c311 -32 552 -156 725 -371 161 -202 267 -502 307
-869 17 -149 16 -573 0 -720 -64 -575 -272 -950 -626 -1127 -76 -39 -228 -87
-325 -104 -95 -17 -372 -17 -470 -1 -556 92 -868 484 -956 1203 -20 163 -23
593 -5 749 79 684 356 1082 837 1205 167 42 331 53 513 35z m3146 -82 c171
-58 290 -160 365 -310 65 -131 81 -207 87 -404 7 -205 -8 -297 -66 -419 -72
-151 -191 -246 -351 -279 -59 -11 -65 -15 -68 -39 -3 -24 0 -27 27 -27 45 0
130 -20 186 -43 267 -111 411 -408 376 -774 -16 -158 -42 -256 -107 -390 -46
-96 -65 -124 -132 -191 -77 -78 -177 -140 -277 -173 -31 -10 -212 -15 -808
-19 l-767 -5 0 1555 0 1555 727 -5 728 -5 80 -27z"/>
<path d="M1825 4926 c-280 -55 -453 -239 -522 -556 -16 -76 -18 -139 -18 -620
0 -481 2 -544 18 -620 62 -288 211 -465 450 -538 70 -22 103 -25 222 -26 103
0 157 4 205 17 208 55 363 200 438 410 56 155 57 175 57 762 0 474 -2 549 -17
617 -39 174 -122 328 -225 417 -57 50 -165 105 -248 126 -84 22 -273 28 -360
11z"/>
<path d="M4220 4440 l0 -451 408 3 407 3 58 29 c69 33 110 84 134 165 25 84
25 422 0 504 -22 73 -79 136 -150 168 -51 24 -56 24 -454 27 l-403 3 0 -451z"/>
<path d="M4220 3095 l0 -485 418 0 c461 0 495 4 578 60 24 17 55 51 70 75 48
83 56 137 52 379 -3 220 -3 221 -32 284 -33 72 -85 122 -155 149 -41 16 -94
18 -488 21 l-443 3 0 -486z"/>
</g>
</svg>
