<?xml version="1.0" standalone="no"?>
<!DOCTYPE svg PUBLIC "-//W3C//DTD SVG 20010904//EN"
 "http://www.w3.org/TR/2001/REC-SVG-20010904/DTD/svg10.dtd">
<svg version="1.0" xmlns="http://www.w3.org/2000/svg"
 width="992.000000pt" height="992.000000pt" viewBox="0 0 992.000000 992.000000"
 preserveAspectRatio="xMidYMid meet">
<metadata>
Created by potrace 1.14, written by Peter Selinger 2001-2017
</metadata>
<g transform="translate(0.000000,992.000000) scale(0.100000,-0.100000)"
fill="#000000" stroke="none">
<path d="M5647 8864 c-2 -2 -231 -16 -284 -18 -18 0 -33 -4 -33 -7 0 -3 -11
-5 -24 -4 -13 2 -43 -1 -67 -5 -24 -4 -64 -11 -89 -14 -25 -3 -56 -8 -70 -12
-14 -3 -38 -7 -55 -9 -35 -6 -51 -9 -120 -25 -27 -6 -58 -13 -68 -15 -10 -2
-52 -14 -95 -25 -42 -12 -84 -23 -92 -25 -25 -6 -270 -92 -355 -125 -104 -41
-375 -174 -490 -240 -77 -44 -268 -167 -300 -192 -5 -5 -37 -28 -70 -53 -153
-114 -263 -207 -373 -314 l-58 -56 42 -43 c23 -23 45 -42 48 -42 3 0 24 17 46
38 62 61 195 179 243 215 16 12 45 37 65 54 20 18 42 33 49 33 6 0 13 4 15 8
4 12 146 112 157 112 5 0 11 4 13 8 9 24 510 302 542 302 3 0 29 11 58 24 270
123 673 232 1008 272 25 3 58 7 75 10 128 17 506 23 665 10 134 -10 239 -23
323 -37 32 -6 70 -12 85 -14 38 -5 166 -33 237 -51 33 -9 67 -18 75 -19 8 -2
47 -13 85 -25 39 -12 86 -26 105 -32 19 -5 40 -13 45 -16 6 -4 17 -8 26 -9 30
-5 283 -110 394 -164 190 -91 454 -250 561 -336 23 -18 44 -33 47 -33 6 0 33
-21 71 -55 6 -5 29 -23 51 -39 22 -17 42 -33 45 -36 3 -4 37 -34 75 -67 116
-100 290 -277 390 -398 28 -33 53 -61 58 -63 4 -2 7 -10 7 -18 0 -8 4 -14 8
-14 14 0 190 -249 279 -395 21 -35 127 -229 150 -275 100 -201 224 -529 258
-680 1 -8 8 -35 15 -60 7 -25 14 -53 16 -63 2 -10 6 -28 10 -39 3 -11 7 -30 9
-41 2 -12 11 -62 20 -112 9 -49 18 -106 21 -125 2 -19 7 -53 10 -75 25 -168
36 -543 20 -725 -3 -47 -8 -107 -11 -135 -4 -59 -14 -138 -21 -180 -9 -49 -15
-88 -19 -115 -2 -14 -4 -25 -5 -25 -2 0 -8 -31 -15 -70 -11 -74 -68 -283 -115
-423 -206 -617 -568 -1169 -1055 -1608 -140 -126 -286 -238 -456 -351 -87 -57
-160 -103 -163 -103 -4 0 -24 -11 -45 -24 -46 -30 -256 -136 -326 -166 -27
-12 -59 -25 -70 -30 -86 -39 -329 -126 -375 -135 -11 -2 -24 -6 -28 -9 -5 -3
-19 -7 -33 -10 -13 -3 -58 -14 -99 -25 -81 -22 -293 -65 -375 -76 -27 -4 -63
-9 -80 -11 -16 -2 -55 -6 -85 -9 -30 -2 -86 -7 -125 -11 -38 -4 -162 -7 -275
-7 -216 1 -292 6 -460 28 -25 3 -52 6 -60 7 -8 0 -37 4 -65 9 -27 5 -63 12
-80 15 -16 3 -41 7 -55 9 -14 2 -47 9 -75 15 -27 7 -59 14 -70 15 -60 10 -309
87 -460 143 -125 46 -445 192 -465 212 -3 3 -21 13 -40 24 -87 46 -125 70
-128 78 -2 4 -8 8 -14 8 -27 0 -376 252 -463 334 -19 18 -35 32 -35 30 0 -10
-221 205 -309 300 -48 52 -38 53 -105 -7 -11 -9 -24 -17 -29 -17 -28 0 223
-260 379 -390 49 -41 91 -78 92 -82 2 -5 10 -8 17 -8 7 0 15 -4 17 -9 6 -17
259 -201 277 -201 5 0 11 -4 13 -9 4 -11 183 -121 196 -121 6 0 12 -4 14 -8 4
-11 303 -160 393 -197 39 -15 84 -34 100 -41 17 -7 57 -22 90 -33 33 -12 67
-24 75 -28 8 -3 24 -8 35 -10 11 -1 29 -7 40 -13 18 -8 220 -66 264 -75 9 -2
48 -10 86 -19 97 -22 127 -27 215 -40 25 -4 56 -9 70 -12 161 -31 534 -45 790
-29 69 4 140 8 157 9 18 0 33 4 33 7 0 3 11 5 24 4 13 -2 43 1 67 5 24 4 64
11 89 14 25 3 56 8 70 12 14 3 39 7 55 9 35 6 51 9 120 25 28 6 58 13 67 15 9
2 52 13 95 26 43 12 83 22 88 23 6 1 42 13 80 26 39 13 73 25 78 26 4 1 8 2
10 4 1 1 9 3 17 5 84 16 589 248 612 280 4 5 8 7 8 3 0 -4 25 8 55 27 30 19
58 35 64 35 5 0 11 3 13 8 2 4 28 23 58 42 324 202 626 470 924 820 157 184
354 493 482 755 61 126 171 385 179 420 1 6 20 69 42 140 41 129 53 171 60
210 2 11 6 27 9 35 4 8 8 24 10 35 1 11 10 54 19 95 9 41 18 89 20 105 3 17
11 68 19 115 7 47 12 95 11 108 -1 12 1 22 4 22 3 0 7 15 7 33 1 17 5 88 9
157 16 242 1 636 -29 786 -3 16 -8 47 -11 69 -17 110 -26 158 -35 195 -5 19
-12 49 -15 65 -8 39 -13 60 -15 60 -1 0 -3 9 -5 20 -2 17 -11 49 -40 150 -1 6
-6 25 -10 43 -4 18 -12 35 -16 38 -5 3 -9 14 -9 24 0 18 -47 152 -77 219 -8
18 -16 39 -17 45 -5 35 -179 384 -254 510 -230 388 -536 746 -877 1027 -82 68
-235 182 -315 234 -25 17 -47 32 -50 35 -3 3 -16 11 -30 19 -14 8 -53 32 -88
53 -63 39 -253 142 -262 143 -3 1 -21 9 -40 20 -19 11 -37 20 -40 20 -3 1 -25
10 -50 22 -25 11 -74 33 -110 47 -36 15 -74 31 -85 36 -11 5 -65 25 -120 43
-56 18 -105 36 -111 39 -28 18 -469 123 -524 126 -8 0 -26 3 -40 6 -66 15
-206 31 -375 42 -90 6 -354 12 -358 8z"/>
<path d="M2128 7385 c-2 -1 -43 -5 -93 -9 -49 -3 -101 -9 -115 -11 -14 -3 -61
-13 -105 -21 -44 -9 -85 -20 -91 -25 -6 -5 -13 -7 -16 -4 -6 6 -155 -44 -233
-79 -73 -33 -250 -131 -265 -146 -3 -3 -34 -27 -70 -52 -138 -100 -280 -243
-382 -387 -26 -36 -52 -71 -58 -78 -5 -7 -10 -14 -10 -17 0 -2 -17 -33 -38
-67 -22 -35 -47 -82 -57 -104 -11 -22 -23 -43 -28 -46 -5 -3 -8 -8 -7 -10 2
-5 -36 -103 -71 -184 -4 -11 -18 -51 -29 -90 -12 -38 -24 -77 -27 -85 -7 -18
-9 -26 -16 -60 -3 -14 -11 -47 -17 -75 -17 -74 -27 -125 -35 -195 -3 -19 -7
-46 -10 -60 -26 -136 -27 -611 0 -820 5 -43 25 -166 32 -200 2 -14 6 -34 8
-45 5 -33 35 -148 45 -175 6 -14 11 -34 13 -45 2 -11 7 -27 10 -35 24 -62 51
-146 49 -152 -1 -5 3 -8 8 -8 6 0 10 -7 10 -15 0 -8 4 -23 9 -33 5 -9 28 -55
51 -102 66 -131 125 -227 184 -301 12 -14 34 -43 51 -65 86 -113 292 -294 425
-374 30 -18 62 -39 70 -45 64 -49 361 -158 490 -180 14 -2 41 -7 60 -10 19 -4
46 -8 60 -11 111 -19 420 -25 535 -11 33 5 67 8 75 8 8 1 31 5 50 9 19 5 53
11 75 15 83 12 248 64 345 108 25 11 51 22 58 23 8 1 21 9 30 17 10 8 25 17
35 20 18 7 217 135 227 146 3 3 26 23 52 44 81 65 189 178 265 277 23 30 46
60 51 65 13 16 107 169 107 175 0 3 3 10 7 15 62 101 178 390 202 510 3 11 13
58 24 105 24 99 43 223 59 370 14 136 7 620 -11 710 -3 14 -8 46 -10 71 -3 25
-7 57 -10 70 -3 13 -8 35 -10 49 -24 143 -108 412 -167 535 -16 33 -29 65 -29
72 0 7 -4 13 -10 13 -5 0 -10 9 -10 20 0 11 -3 20 -8 20 -4 0 -15 17 -25 38
-38 78 -90 159 -112 174 -6 5 -6 8 0 8 6 0 6 3 0 8 -6 4 -32 35 -58 68 -141
185 -373 376 -592 486 -91 45 -266 112 -320 121 -17 3 -46 10 -65 16 -19 5
-53 12 -75 16 -22 3 -49 7 -60 9 -82 14 -416 30 -427 21z m297 -640 c154 -38
255 -87 381 -181 73 -55 189 -171 221 -221 10 -16 20 -30 23 -33 59 -49 234
-421 256 -540 2 -14 9 -36 14 -50 8 -23 22 -88 35 -169 3 -19 8 -37 10 -41 2
-3 6 -31 9 -61 3 -30 8 -65 11 -78 8 -40 17 -229 17 -351 1 -148 -8 -265 -27
-365 -8 -44 -18 -98 -21 -120 -9 -68 -82 -273 -130 -368 -47 -92 -101 -179
-116 -185 -4 -2 -8 -8 -8 -13 0 -9 -12 -24 -89 -107 -53 -58 -162 -142 -238
-184 -43 -23 -80 -43 -83 -44 -3 0 -18 -6 -35 -13 -45 -19 -164 -50 -220 -58
-115 -16 -290 -8 -390 19 -22 5 -41 10 -42 9 -2 0 -29 9 -60 21 -81 30 -228
110 -253 138 -3 3 -21 17 -40 31 -67 50 -189 180 -235 251 -5 8 -22 33 -36 54
-70 106 -196 374 -181 388 3 3 0 6 -7 6 -7 0 -10 4 -7 8 3 5 -2 28 -11 53 -9
24 -19 60 -23 79 -5 19 -11 46 -14 60 -33 146 -40 192 -63 435 -9 96 -4 440 7
440 0 0 3 20 5 45 5 49 11 92 20 130 4 14 8 39 11 55 3 17 12 55 21 85 9 30
17 57 17 60 3 18 73 181 100 232 42 82 106 181 123 191 7 4 13 13 13 20 0 17
149 164 214 212 67 49 212 123 229 117 4 -1 7 3 7 8 0 6 3 9 8 9 4 -1 9 0 12
1 21 8 119 30 155 34 20 3 39 7 41 9 3 2 66 4 142 5 110 0 155 -5 227 -23z"/>
<path d="M6477 7334 c-1 -1 -51 -5 -112 -7 -60 -3 -141 -8 -180 -11 -63 -5
-92 -8 -215 -21 -19 -2 -64 -7 -100 -10 -83 -8 -126 -13 -170 -20 -19 -2 -53
-7 -75 -10 -38 -5 -59 -7 -170 -20 -27 -3 -61 -8 -75 -10 -14 -2 -45 -6 -70
-9 -25 -3 -74 -9 -110 -15 -36 -5 -83 -12 -105 -16 -22 -3 -66 -10 -99 -15
-32 -5 -61 -9 -65 -8 -3 0 -8 -1 -11 -2 -11 -4 -47 -10 -80 -14 -19 -2 -35 -5
-35 -6 0 -1 -11 -3 -25 -5 -64 -11 -65 -11 -64 -41 0 -16 3 -40 7 -54 66 -288
90 -386 95 -392 4 -4 27 -2 52 3 25 6 63 12 85 14 22 2 40 4 40 5 0 5 85 5 86
1 1 -7 5 -189 13 -511 3 -129 8 -318 11 -420 3 -102 8 -282 10 -400 3 -118 7
-245 8 -282 2 -38 -1 -68 -6 -68 -4 0 -5 -6 0 -12 8 -14 9 -27 17 -378 3 -135
6 -245 6 -245 0 0 3 -88 5 -195 12 -469 15 -609 21 -830 4 -129 7 -247 7 -262
-1 -16 4 -28 11 -29 29 -3 129 2 137 6 4 3 10 1 14 -4 4 -7 15 -7 30 -1 14 5
25 6 25 1 0 -5 15 -5 34 -1 19 4 40 4 47 0 7 -5 23 -4 36 1 12 5 23 5 23 1 0
-8 182 -8 196 0 5 3 18 2 29 -2 11 -4 30 -4 41 1 12 4 25 5 28 2 7 -8 66 -10
66 -3 0 7 79 4 86 -3 3 -3 17 -2 30 3 13 5 24 6 24 1 0 -5 15 -5 34 -1 19 4
40 4 47 0 7 -5 23 -4 36 1 12 5 23 5 23 1 0 -5 188 -8 198 -2 7 5 83 2 88 -3
3 -3 17 -2 30 3 14 6 26 6 29 0 3 -6 15 -6 30 0 14 5 25 6 25 2 0 -4 52 -7
115 -7 63 0 115 2 115 5 0 3 37 6 83 6 106 2 229 13 317 30 14 3 39 7 55 10
17 3 44 10 62 15 17 6 42 12 56 14 123 23 325 116 459 212 85 61 266 243 241
243 -3 0 3 10 14 23 45 48 129 246 149 352 4 22 9 47 11 55 7 33 16 159 16
235 0 160 -28 330 -74 455 -21 56 -79 181 -89 190 -3 3 -12 19 -22 35 -48 87
-179 221 -281 287 -23 15 -46 31 -52 36 -30 24 -183 80 -240 89 -11 1 -29 5
-40 7 -11 3 -26 5 -32 5 -31 2 -8 18 42 29 89 21 217 84 289 142 125 102 243
291 271 435 3 11 9 39 15 62 26 108 29 340 6 458 -14 69 -46 175 -58 189 -4 6
-8 18 -8 28 0 10 -4 18 -10 18 -5 0 -10 6 -10 14 0 24 -98 164 -162 231 -58
60 -143 132 -193 162 -146 89 -368 170 -538 198 -17 3 -43 7 -57 10 -81 14
-146 18 -333 20 -114 1 -208 0 -210 -1z m371 -573 c236 -69 405 -229 472 -443
18 -59 32 -239 21 -263 -3 -5 -6 -19 -7 -30 -11 -128 -74 -233 -217 -360 -32
-28 -162 -100 -175 -96 -1 1 -15 -5 -31 -13 -63 -33 -235 -68 -402 -81 -222
-18 -670 -29 -678 -17 -5 8 -6 1237 -2 1288 1 7 22 12 49 13 26 1 65 3 87 6
22 2 110 7 195 10 85 4 156 8 157 9 2 1 105 1 230 0 201 -1 237 -4 301 -23z
m17 -1831 c51 -2 198 -26 225 -37 8 -4 17 -7 20 -8 97 -26 238 -107 294 -169
75 -84 112 -148 136 -236 14 -51 17 -198 7 -280 -24 -183 -128 -354 -273 -447
-69 -45 -192 -98 -254 -109 -14 -3 -34 -8 -45 -11 -25 -9 -20 -8 -85 -17 -30
-5 -64 -10 -75 -12 -29 -6 -111 -15 -175 -19 -30 -3 -84 -7 -120 -10 -74 -6
-297 -17 -320 -16 -18 1 -35 1 -205 -2 -71 -1 -139 -1 -150 1 -20 3 -20 11
-18 685 1 375 2 684 2 687 1 5 927 5 1036 0z"/>
</g>
</svg>
